  0
SECTION
  2
BLOCKS
  0
ENDSEC
  0
SECTION
  2
ENTITIES
  0
LINE
  8
0
 10
101.169
 20
-80.9631
 11
101.627
 21
-80.8532
  0
LINE
  8
0
 10
101.627
 20
-80.8532
 11
102.062
 21
-80.673
  0
LINE
  8
0
 10
102.062
 20
-80.673
 11
102.463
 21
-80.427
  0
LINE
  8
0
 10
102.463
 20
-80.427
 11
102.821
 21
-80.1213
  0
LINE
  8
0
 10
102.821
 20
-80.1213
 11
103.127
 21
-79.7634
  0
LINE
  8
0
 10
103.127
 20
-79.7634
 11
103.373
 21
-79.362
  0
LINE
  8
0
 10
103.373
 20
-79.362
 11
103.553
 21
-78.927
  0
LINE
  8
0
 10
103.553
 20
-78.927
 11
103.663
 21
-78.4693
  0
LINE
  8
0
 10
103.663
 20
-78.4693
 11
103.7
 21
-78
  0
LINE
  8
0
 10
103.7
 20
-78
 11
103.7
 21
78
  0
LINE
  8
0
 10
103.7
 20
78
 11
103.663
 21
78.4693
  0
LINE
  8
0
 10
103.663
 20
78.4693
 11
103.553
 21
78.927
  0
LINE
  8
0
 10
103.553
 20
78.927
 11
103.373
 21
79.362
  0
LINE
  8
0
 10
103.373
 20
79.362
 11
103.127
 21
79.7634
  0
LINE
  8
0
 10
103.127
 20
79.7634
 11
102.821
 21
80.1213
  0
LINE
  8
0
 10
102.821
 20
80.1213
 11
102.463
 21
80.427
  0
LINE
  8
0
 10
102.463
 20
80.427
 11
102.062
 21
80.673
  0
LINE
  8
0
 10
102.062
 20
80.673
 11
101.627
 21
80.8532
  0
LINE
  8
0
 10
101.627
 20
80.8532
 11
101.169
 21
80.9631
  0
LINE
  8
0
 10
101.169
 20
80.9631
 11
100.7
 21
81
  0
LINE
  8
0
 10
100.7
 20
81
 11
-100.7
 21
81
  0
LINE
  8
0
 10
-100.7
 20
81
 11
-101.169
 21
80.9631
  0
LINE
  8
0
 10
-101.169
 20
80.9631
 11
-101.627
 21
80.8532
  0
LINE
  8
0
 10
-101.627
 20
80.8532
 11
-102.062
 21
80.673
  0
LINE
  8
0
 10
-102.062
 20
80.673
 11
-102.463
 21
80.427
  0
LINE
  8
0
 10
-102.463
 20
80.427
 11
-102.821
 21
80.1213
  0
LINE
  8
0
 10
-102.821
 20
80.1213
 11
-103.127
 21
79.7634
  0
LINE
  8
0
 10
-103.127
 20
79.7634
 11
-103.373
 21
79.362
  0
LINE
  8
0
 10
-103.373
 20
79.362
 11
-103.553
 21
78.927
  0
LINE
  8
0
 10
-103.553
 20
78.927
 11
-103.663
 21
78.4693
  0
LINE
  8
0
 10
-103.663
 20
78.4693
 11
-103.7
 21
78
  0
LINE
  8
0
 10
-103.7
 20
78
 11
-103.7
 21
-78
  0
LINE
  8
0
 10
-103.7
 20
-78
 11
-103.663
 21
-78.4693
  0
LINE
  8
0
 10
-103.663
 20
-78.4693
 11
-103.553
 21
-78.927
  0
LINE
  8
0
 10
-103.553
 20
-78.927
 11
-103.373
 21
-79.362
  0
LINE
  8
0
 10
-103.373
 20
-79.362
 11
-103.127
 21
-79.7634
  0
LINE
  8
0
 10
-103.127
 20
-79.7634
 11
-102.821
 21
-80.1213
  0
LINE
  8
0
 10
-102.821
 20
-80.1213
 11
-102.463
 21
-80.427
  0
LINE
  8
0
 10
-102.463
 20
-80.427
 11
-102.062
 21
-80.673
  0
LINE
  8
0
 10
-102.062
 20
-80.673
 11
-101.627
 21
-80.8532
  0
LINE
  8
0
 10
-101.627
 20
-80.8532
 11
-101.169
 21
-80.9631
  0
LINE
  8
0
 10
-101.169
 20
-80.9631
 11
-100.7
 21
-81
  0
LINE
  8
0
 10
-100.7
 20
-81
 11
100.7
 21
-81
  0
LINE
  8
0
 10
100.7
 20
-81
 11
101.169
 21
-80.9631
  0
LINE
  8
0
 10
99.4497
 20
75.4197
 11
99.2056
 21
75.4783
  0
LINE
  8
0
 10
99.2056
 20
75.4783
 11
98.9736
 21
75.5744
  0
LINE
  8
0
 10
98.9736
 20
75.5744
 11
98.7595
 21
75.7056
  0
LINE
  8
0
 10
98.7595
 20
75.7056
 11
98.5686
 21
75.8686
  0
LINE
  8
0
 10
98.5686
 20
75.8686
 11
98.4056
 21
76.0595
  0
LINE
  8
0
 10
98.4056
 20
76.0595
 11
98.2744
 21
76.2736
  0
LINE
  8
0
 10
98.2744
 20
76.2736
 11
98.1783
 21
76.5056
  0
LINE
  8
0
 10
98.1783
 20
76.5056
 11
98.1197
 21
76.7497
  0
LINE
  8
0
 10
98.1197
 20
76.7497
 11
98.1
 21
77
  0
LINE
  8
0
 10
98.1
 20
77
 11
98.1197
 21
77.2503
  0
LINE
  8
0
 10
98.1197
 20
77.2503
 11
98.1783
 21
77.4944
  0
LINE
  8
0
 10
98.1783
 20
77.4944
 11
98.2744
 21
77.7264
  0
LINE
  8
0
 10
98.2744
 20
77.7264
 11
98.4056
 21
77.9404
  0
LINE
  8
0
 10
98.4056
 20
77.9404
 11
98.5686
 21
78.1314
  0
LINE
  8
0
 10
98.5686
 20
78.1314
 11
98.7595
 21
78.2944
  0
LINE
  8
0
 10
98.7595
 20
78.2944
 11
98.9736
 21
78.4256
  0
LINE
  8
0
 10
98.9736
 20
78.4256
 11
99.2056
 21
78.5217
  0
LINE
  8
0
 10
99.2056
 20
78.5217
 11
99.4497
 21
78.5803
  0
LINE
  8
0
 10
99.4497
 20
78.5803
 11
99.7
 21
78.6
  0
LINE
  8
0
 10
99.7
 20
78.6
 11
99.9503
 21
78.5803
  0
LINE
  8
0
 10
99.9503
 20
78.5803
 11
100.194
 21
78.5217
  0
LINE
  8
0
 10
100.194
 20
78.5217
 11
100.426
 21
78.4256
  0
LINE
  8
0
 10
100.426
 20
78.4256
 11
100.64
 21
78.2944
  0
LINE
  8
0
 10
100.64
 20
78.2944
 11
100.831
 21
78.1314
  0
LINE
  8
0
 10
100.831
 20
78.1314
 11
100.994
 21
77.9404
  0
LINE
  8
0
 10
100.994
 20
77.9404
 11
101.126
 21
77.7264
  0
LINE
  8
0
 10
101.126
 20
77.7264
 11
101.222
 21
77.4944
  0
LINE
  8
0
 10
101.222
 20
77.4944
 11
101.28
 21
77.2503
  0
LINE
  8
0
 10
101.28
 20
77.2503
 11
101.3
 21
77
  0
LINE
  8
0
 10
101.3
 20
77
 11
101.28
 21
76.7497
  0
LINE
  8
0
 10
101.28
 20
76.7497
 11
101.222
 21
76.5056
  0
LINE
  8
0
 10
101.222
 20
76.5056
 11
101.126
 21
76.2736
  0
LINE
  8
0
 10
101.126
 20
76.2736
 11
100.994
 21
76.0595
  0
LINE
  8
0
 10
100.994
 20
76.0595
 11
100.831
 21
75.8686
  0
LINE
  8
0
 10
100.831
 20
75.8686
 11
100.64
 21
75.7056
  0
LINE
  8
0
 10
100.64
 20
75.7056
 11
100.426
 21
75.5744
  0
LINE
  8
0
 10
100.426
 20
75.5744
 11
100.194
 21
75.4783
  0
LINE
  8
0
 10
100.194
 20
75.4783
 11
99.9503
 21
75.4197
  0
LINE
  8
0
 10
99.9503
 20
75.4197
 11
99.7
 21
75.4
  0
LINE
  8
0
 10
99.7
 20
75.4
 11
99.4497
 21
75.4197
  0
LINE
  8
0
 10
-99.9503
 20
75.4197
 11
-100.194
 21
75.4783
  0
LINE
  8
0
 10
-100.194
 20
75.4783
 11
-100.426
 21
75.5744
  0
LINE
  8
0
 10
-100.426
 20
75.5744
 11
-100.64
 21
75.7056
  0
LINE
  8
0
 10
-100.64
 20
75.7056
 11
-100.831
 21
75.8686
  0
LINE
  8
0
 10
-100.831
 20
75.8686
 11
-100.994
 21
76.0595
  0
LINE
  8
0
 10
-100.994
 20
76.0595
 11
-101.126
 21
76.2736
  0
LINE
  8
0
 10
-101.126
 20
76.2736
 11
-101.222
 21
76.5056
  0
LINE
  8
0
 10
-101.222
 20
76.5056
 11
-101.28
 21
76.7497
  0
LINE
  8
0
 10
-101.28
 20
76.7497
 11
-101.3
 21
77
  0
LINE
  8
0
 10
-101.3
 20
77
 11
-101.28
 21
77.2503
  0
LINE
  8
0
 10
-101.28
 20
77.2503
 11
-101.222
 21
77.4944
  0
LINE
  8
0
 10
-101.222
 20
77.4944
 11
-101.126
 21
77.7264
  0
LINE
  8
0
 10
-101.126
 20
77.7264
 11
-100.994
 21
77.9404
  0
LINE
  8
0
 10
-100.994
 20
77.9404
 11
-100.831
 21
78.1314
  0
LINE
  8
0
 10
-100.831
 20
78.1314
 11
-100.64
 21
78.2944
  0
LINE
  8
0
 10
-100.64
 20
78.2944
 11
-100.426
 21
78.4256
  0
LINE
  8
0
 10
-100.426
 20
78.4256
 11
-100.194
 21
78.5217
  0
LINE
  8
0
 10
-100.194
 20
78.5217
 11
-99.9503
 21
78.5803
  0
LINE
  8
0
 10
-99.9503
 20
78.5803
 11
-99.7
 21
78.6
  0
LINE
  8
0
 10
-99.7
 20
78.6
 11
-99.4497
 21
78.5803
  0
LINE
  8
0
 10
-99.4497
 20
78.5803
 11
-99.2056
 21
78.5217
  0
LINE
  8
0
 10
-99.2056
 20
78.5217
 11
-98.9736
 21
78.4256
  0
LINE
  8
0
 10
-98.9736
 20
78.4256
 11
-98.7595
 21
78.2944
  0
LINE
  8
0
 10
-98.7595
 20
78.2944
 11
-98.5686
 21
78.1314
  0
LINE
  8
0
 10
-98.5686
 20
78.1314
 11
-98.4056
 21
77.9404
  0
LINE
  8
0
 10
-98.4056
 20
77.9404
 11
-98.2744
 21
77.7264
  0
LINE
  8
0
 10
-98.2744
 20
77.7264
 11
-98.1783
 21
77.4944
  0
LINE
  8
0
 10
-98.1783
 20
77.4944
 11
-98.1197
 21
77.2503
  0
LINE
  8
0
 10
-98.1197
 20
77.2503
 11
-98.1
 21
77
  0
LINE
  8
0
 10
-98.1
 20
77
 11
-98.1197
 21
76.7497
  0
LINE
  8
0
 10
-98.1197
 20
76.7497
 11
-98.1783
 21
76.5056
  0
LINE
  8
0
 10
-98.1783
 20
76.5056
 11
-98.2744
 21
76.2736
  0
LINE
  8
0
 10
-98.2744
 20
76.2736
 11
-98.4056
 21
76.0595
  0
LINE
  8
0
 10
-98.4056
 20
76.0595
 11
-98.5686
 21
75.8686
  0
LINE
  8
0
 10
-98.5686
 20
75.8686
 11
-98.7595
 21
75.7056
  0
LINE
  8
0
 10
-98.7595
 20
75.7056
 11
-98.9736
 21
75.5744
  0
LINE
  8
0
 10
-98.9736
 20
75.5744
 11
-99.2056
 21
75.4783
  0
LINE
  8
0
 10
-99.2056
 20
75.4783
 11
-99.4497
 21
75.4197
  0
LINE
  8
0
 10
-99.4497
 20
75.4197
 11
-99.7
 21
75.4
  0
LINE
  8
0
 10
-99.7
 20
75.4
 11
-99.9503
 21
75.4197
  0
LINE
  8
0
 10
89.3715
 20
64.9258
 11
89.0511
 21
65.0028
  0
LINE
  8
0
 10
89.0511
 20
65.0028
 11
88.7466
 21
65.1289
  0
LINE
  8
0
 10
88.7466
 20
65.1289
 11
88.4656
 21
65.3011
  0
LINE
  8
0
 10
88.4656
 20
65.3011
 11
88.2151
 21
65.5151
  0
LINE
  8
0
 10
88.2151
 20
65.5151
 11
88.0011
 21
65.7656
  0
LINE
  8
0
 10
88.0011
 20
65.7656
 11
87.8289
 21
66.0466
  0
LINE
  8
0
 10
87.8289
 20
66.0466
 11
87.7028
 21
66.3511
  0
LINE
  8
0
 10
87.7028
 20
66.3511
 11
87.6258
 21
66.6715
  0
LINE
  8
0
 10
87.6258
 20
66.6715
 11
87.6
 21
67
  0
LINE
  8
0
 10
87.6
 20
67
 11
87.6258
 21
67.3285
  0
LINE
  8
0
 10
87.6258
 20
67.3285
 11
87.7028
 21
67.6489
  0
LINE
  8
0
 10
87.7028
 20
67.6489
 11
87.8289
 21
67.9534
  0
LINE
  8
0
 10
87.8289
 20
67.9534
 11
88.0011
 21
68.2343
  0
LINE
  8
0
 10
88.0011
 20
68.2343
 11
88.2151
 21
68.4849
  0
LINE
  8
0
 10
88.2151
 20
68.4849
 11
88.4656
 21
68.6989
  0
LINE
  8
0
 10
88.4656
 20
68.6989
 11
88.7466
 21
68.8711
  0
LINE
  8
0
 10
88.7466
 20
68.8711
 11
89.0511
 21
68.9972
  0
LINE
  8
0
 10
89.0511
 20
68.9972
 11
89.3715
 21
69.0741
  0
LINE
  8
0
 10
89.3715
 20
69.0741
 11
89.7
 21
69.1
  0
LINE
  8
0
 10
89.7
 20
69.1
 11
90.0285
 21
69.0741
  0
LINE
  8
0
 10
90.0285
 20
69.0741
 11
90.3489
 21
68.9972
  0
LINE
  8
0
 10
90.3489
 20
68.9972
 11
90.6534
 21
68.8711
  0
LINE
  8
0
 10
90.6534
 20
68.8711
 11
90.9343
 21
68.6989
  0
LINE
  8
0
 10
90.9343
 20
68.6989
 11
91.1849
 21
68.4849
  0
LINE
  8
0
 10
91.1849
 20
68.4849
 11
91.3989
 21
68.2343
  0
LINE
  8
0
 10
91.3989
 20
68.2343
 11
91.5711
 21
67.9534
  0
LINE
  8
0
 10
91.5711
 20
67.9534
 11
91.6972
 21
67.6489
  0
LINE
  8
0
 10
91.6972
 20
67.6489
 11
91.7741
 21
67.3285
  0
LINE
  8
0
 10
91.7741
 20
67.3285
 11
91.8
 21
67
  0
LINE
  8
0
 10
91.8
 20
67
 11
91.7741
 21
66.6715
  0
LINE
  8
0
 10
91.7741
 20
66.6715
 11
91.6972
 21
66.3511
  0
LINE
  8
0
 10
91.6972
 20
66.3511
 11
91.5711
 21
66.0466
  0
LINE
  8
0
 10
91.5711
 20
66.0466
 11
91.3989
 21
65.7656
  0
LINE
  8
0
 10
91.3989
 20
65.7656
 11
91.1849
 21
65.5151
  0
LINE
  8
0
 10
91.1849
 20
65.5151
 11
90.9343
 21
65.3011
  0
LINE
  8
0
 10
90.9343
 20
65.3011
 11
90.6534
 21
65.1289
  0
LINE
  8
0
 10
90.6534
 20
65.1289
 11
90.3489
 21
65.0028
  0
LINE
  8
0
 10
90.3489
 20
65.0028
 11
90.0285
 21
64.9258
  0
LINE
  8
0
 10
90.0285
 20
64.9258
 11
89.7
 21
64.9
  0
LINE
  8
0
 10
89.7
 20
64.9
 11
89.3715
 21
64.9258
  0
LINE
  8
0
 10
99.4497
 20
-78.5803
 11
99.2056
 21
-78.5217
  0
LINE
  8
0
 10
99.2056
 20
-78.5217
 11
98.9736
 21
-78.4256
  0
LINE
  8
0
 10
98.9736
 20
-78.4256
 11
98.7595
 21
-78.2944
  0
LINE
  8
0
 10
98.7595
 20
-78.2944
 11
98.5686
 21
-78.1314
  0
LINE
  8
0
 10
98.5686
 20
-78.1314
 11
98.4056
 21
-77.9404
  0
LINE
  8
0
 10
98.4056
 20
-77.9404
 11
98.2744
 21
-77.7264
  0
LINE
  8
0
 10
98.2744
 20
-77.7264
 11
98.1783
 21
-77.4944
  0
LINE
  8
0
 10
98.1783
 20
-77.4944
 11
98.1197
 21
-77.2503
  0
LINE
  8
0
 10
98.1197
 20
-77.2503
 11
98.1
 21
-77
  0
LINE
  8
0
 10
98.1
 20
-77
 11
98.1197
 21
-76.7497
  0
LINE
  8
0
 10
98.1197
 20
-76.7497
 11
98.1783
 21
-76.5056
  0
LINE
  8
0
 10
98.1783
 20
-76.5056
 11
98.2744
 21
-76.2736
  0
LINE
  8
0
 10
98.2744
 20
-76.2736
 11
98.4056
 21
-76.0595
  0
LINE
  8
0
 10
98.4056
 20
-76.0595
 11
98.5686
 21
-75.8686
  0
LINE
  8
0
 10
98.5686
 20
-75.8686
 11
98.7595
 21
-75.7056
  0
LINE
  8
0
 10
98.7595
 20
-75.7056
 11
98.9736
 21
-75.5744
  0
LINE
  8
0
 10
98.9736
 20
-75.5744
 11
99.2056
 21
-75.4783
  0
LINE
  8
0
 10
99.2056
 20
-75.4783
 11
99.4497
 21
-75.4197
  0
LINE
  8
0
 10
99.4497
 20
-75.4197
 11
99.7
 21
-75.4
  0
LINE
  8
0
 10
99.7
 20
-75.4
 11
99.9503
 21
-75.4197
  0
LINE
  8
0
 10
99.9503
 20
-75.4197
 11
100.194
 21
-75.4783
  0
LINE
  8
0
 10
100.194
 20
-75.4783
 11
100.426
 21
-75.5744
  0
LINE
  8
0
 10
100.426
 20
-75.5744
 11
100.64
 21
-75.7056
  0
LINE
  8
0
 10
100.64
 20
-75.7056
 11
100.831
 21
-75.8686
  0
LINE
  8
0
 10
100.831
 20
-75.8686
 11
100.994
 21
-76.0595
  0
LINE
  8
0
 10
100.994
 20
-76.0595
 11
101.126
 21
-76.2736
  0
LINE
  8
0
 10
101.126
 20
-76.2736
 11
101.222
 21
-76.5056
  0
LINE
  8
0
 10
101.222
 20
-76.5056
 11
101.28
 21
-76.7497
  0
LINE
  8
0
 10
101.28
 20
-76.7497
 11
101.3
 21
-77
  0
LINE
  8
0
 10
101.3
 20
-77
 11
101.28
 21
-77.2503
  0
LINE
  8
0
 10
101.28
 20
-77.2503
 11
101.222
 21
-77.4944
  0
LINE
  8
0
 10
101.222
 20
-77.4944
 11
101.126
 21
-77.7264
  0
LINE
  8
0
 10
101.126
 20
-77.7264
 11
100.994
 21
-77.9404
  0
LINE
  8
0
 10
100.994
 20
-77.9404
 11
100.831
 21
-78.1314
  0
LINE
  8
0
 10
100.831
 20
-78.1314
 11
100.64
 21
-78.2944
  0
LINE
  8
0
 10
100.64
 20
-78.2944
 11
100.426
 21
-78.4256
  0
LINE
  8
0
 10
100.426
 20
-78.4256
 11
100.194
 21
-78.5217
  0
LINE
  8
0
 10
100.194
 20
-78.5217
 11
99.9503
 21
-78.5803
  0
LINE
  8
0
 10
99.9503
 20
-78.5803
 11
99.7
 21
-78.6
  0
LINE
  8
0
 10
99.7
 20
-78.6
 11
99.4497
 21
-78.5803
  0
LINE
  8
0
 10
-99.9503
 20
-78.5803
 11
-100.194
 21
-78.5217
  0
LINE
  8
0
 10
-100.194
 20
-78.5217
 11
-100.426
 21
-78.4256
  0
LINE
  8
0
 10
-100.426
 20
-78.4256
 11
-100.64
 21
-78.2944
  0
LINE
  8
0
 10
-100.64
 20
-78.2944
 11
-100.831
 21
-78.1314
  0
LINE
  8
0
 10
-100.831
 20
-78.1314
 11
-100.994
 21
-77.9404
  0
LINE
  8
0
 10
-100.994
 20
-77.9404
 11
-101.126
 21
-77.7264
  0
LINE
  8
0
 10
-101.126
 20
-77.7264
 11
-101.222
 21
-77.4944
  0
LINE
  8
0
 10
-101.222
 20
-77.4944
 11
-101.28
 21
-77.2503
  0
LINE
  8
0
 10
-101.28
 20
-77.2503
 11
-101.3
 21
-77
  0
LINE
  8
0
 10
-101.3
 20
-77
 11
-101.28
 21
-76.7497
  0
LINE
  8
0
 10
-101.28
 20
-76.7497
 11
-101.222
 21
-76.5056
  0
LINE
  8
0
 10
-101.222
 20
-76.5056
 11
-101.126
 21
-76.2736
  0
LINE
  8
0
 10
-101.126
 20
-76.2736
 11
-100.994
 21
-76.0595
  0
LINE
  8
0
 10
-100.994
 20
-76.0595
 11
-100.831
 21
-75.8686
  0
LINE
  8
0
 10
-100.831
 20
-75.8686
 11
-100.64
 21
-75.7056
  0
LINE
  8
0
 10
-100.64
 20
-75.7056
 11
-100.426
 21
-75.5744
  0
LINE
  8
0
 10
-100.426
 20
-75.5744
 11
-100.194
 21
-75.4783
  0
LINE
  8
0
 10
-100.194
 20
-75.4783
 11
-99.9503
 21
-75.4197
  0
LINE
  8
0
 10
-99.9503
 20
-75.4197
 11
-99.7
 21
-75.4
  0
LINE
  8
0
 10
-99.7
 20
-75.4
 11
-99.4497
 21
-75.4197
  0
LINE
  8
0
 10
-99.4497
 20
-75.4197
 11
-99.2056
 21
-75.4783
  0
LINE
  8
0
 10
-99.2056
 20
-75.4783
 11
-98.9736
 21
-75.5744
  0
LINE
  8
0
 10
-98.9736
 20
-75.5744
 11
-98.7595
 21
-75.7056
  0
LINE
  8
0
 10
-98.7595
 20
-75.7056
 11
-98.5686
 21
-75.8686
  0
LINE
  8
0
 10
-98.5686
 20
-75.8686
 11
-98.4056
 21
-76.0595
  0
LINE
  8
0
 10
-98.4056
 20
-76.0595
 11
-98.2744
 21
-76.2736
  0
LINE
  8
0
 10
-98.2744
 20
-76.2736
 11
-98.1783
 21
-76.5056
  0
LINE
  8
0
 10
-98.1783
 20
-76.5056
 11
-98.1197
 21
-76.7497
  0
LINE
  8
0
 10
-98.1197
 20
-76.7497
 11
-98.1
 21
-77
  0
LINE
  8
0
 10
-98.1
 20
-77
 11
-98.1197
 21
-77.2503
  0
LINE
  8
0
 10
-98.1197
 20
-77.2503
 11
-98.1783
 21
-77.4944
  0
LINE
  8
0
 10
-98.1783
 20
-77.4944
 11
-98.2744
 21
-77.7264
  0
LINE
  8
0
 10
-98.2744
 20
-77.7264
 11
-98.4056
 21
-77.9404
  0
LINE
  8
0
 10
-98.4056
 20
-77.9404
 11
-98.5686
 21
-78.1314
  0
LINE
  8
0
 10
-98.5686
 20
-78.1314
 11
-98.7595
 21
-78.2944
  0
LINE
  8
0
 10
-98.7595
 20
-78.2944
 11
-98.9736
 21
-78.4256
  0
LINE
  8
0
 10
-98.9736
 20
-78.4256
 11
-99.2056
 21
-78.5217
  0
LINE
  8
0
 10
-99.2056
 20
-78.5217
 11
-99.4497
 21
-78.5803
  0
LINE
  8
0
 10
-99.4497
 20
-78.5803
 11
-99.7
 21
-78.6
  0
LINE
  8
0
 10
-99.7
 20
-78.6
 11
-99.9503
 21
-78.5803
  0
ENDSEC
  0
SECTION
  2
OBJECTS
  0
DICTIONARY
  0
ENDSEC
  0
EOF
